<svg version="1.1" id="Layer_1" xmlns="http://www.w3.org/2000/svg" xmlns:xlink="http://www.w3.org/1999/xlink" x="0px" y="0px"
	 viewBox="0 0 1200 1200" style="enable-background:new 0 0 1200 1200;" xml:space="preserve">
<style type="text/css">
	.st0{fill:#212120; opacity: 0; }
	.st1{fill:#FFFFFF;}
</style>
<rect x="-30.03" y="-30.03" class="st0" width="1260.06" height="1260.06"/>
<g>
	<g>
		<path class="st1" d="M428.81,827.04l5.22-26.05v-0.02c-23.62-53.71-92.72-53.71-92.72-53.71h-0.16l-32.11,160.73h179l15.79-80.94
			H428.81z"/>
		<path class="st1" d="M932.95,453.75l-16.16,80.94H391.55h-82.52l16.16-80.94h74.59l32.31-161.73h178.34l-15.79,80.94h-75.02
			l-16.16,80.79h250.07l12.57-62.9c1.84-9.26-5.22-17.88-14.66-17.88h-57.46l16.45-80.94h70.35c55.87,0,97.78,51.13,86.84,105.91
			l-11.16,55.82H932.95z"/>
		<path class="st1" d="M694.81,747.25l-13.55,67.76c-1.38,6.99-7.53,12.03-14.64,12.03h-62.77l-15.79,80.94h105.04
			c42.23,0,78.58-29.82,86.84-71.21l7.15-35.83C764.54,749.68,700.57,747.37,694.81,747.25z"/>
		<path class="st1" d="M890.97,666.31l-16.16,80.94H267.05l16.16-80.94h74.11l26.28-131.62c0,0,69.37,0,92.86,54.03l-15.5,77.59
			h250.05l26.32-131.59c7.01,0.16,70.01,3.02,92.2,53.94l-15.52,77.65H890.97z"/>
	</g>
	<path class="st0" d="M737.34,534.69v0.02c-0.41-0.02-0.64-0.02-0.64-0.02H737.34z"/>
</g>
</svg>
